<?xml version="1.0" encoding="utf-8"?>
<!-- Generator: Adobe Illustrator 17.0.0, SVG Export Plug-In . SVG Version: 6.00 Build 0)  -->
<!DOCTYPE svg PUBLIC "-//W3C//DTD SVG 1.1//EN" "http://www.w3.org/Graphics/SVG/1.1/DTD/svg11.dtd">
<svg version="1.1" id="Layer_1" xmlns="http://www.w3.org/2000/svg" xmlns:xlink="http://www.w3.org/1999/xlink" x="0px" y="0px"
	 width="350.6px" height="61.9px" viewBox="0 0 350.6 61.9" style="enable-background:new 0 0 350.6 61.9;" xml:space="preserve">
<style type="text/css">
	.st0{display:none;fill:#05283D;}
	.st1{fill:#1679B5;}
	.st2{fill:#1BA2DC;}
</style>
<rect x="-40.4" y="-77" class="st0" width="432" height="216"/>
<g id="Full">
	<g id="Background">
		<path class="st1" d="M97,15h16.9c7.9,0,12.5,4,12.5,9.8c0,7.8-6.6,11-14.9,11h-6.4l-2,9.8H90.5L97,15z M106.7,28.3h3.1
			c2.4,0,3.9-1.3,3.9-3.4c0-1.4-0.7-2.6-3-2.6H108L106.7,28.3z"/>
		<polygon class="st1" points="138,15 150.8,15 146.1,37.6 161.1,37.6 158.1,45.6 131.5,45.6 		"/>
		<path class="st1" d="M9.1,4.5H40l10.7,12.8L65.7,4.5h30.7L64,32.9l23.8,27.8H57.1L46.2,48.1L31.9,60.7H1.2l31.7-27.8L9.1,4.5z"/>
		<path class="st1" d="M214.6,45.6L221,15h14.6c1.6,6,3,12.3,4,16.7h0.3c0.1-2.3,1.2-7.8,2.2-12.9l0.8-3.8h11.3l-6.5,30.6h-13.9
			c-1.1-4.7-3.2-14-4.2-18.9h-0.2c-0.3,3.6-1.5,9.2-2.6,14.5l-0.9,4.4H214.6z"/>
		<polygon class="st1" points="287.7,34.1 273.2,34.1 272.5,37.4 289.2,37.4 286.1,45.5 258.4,45.5 264.9,14.9 292.5,14.9 
			290.8,22.9 275.6,22.9 274.9,26.1 289.4,26.1 		"/>
		<polygon class="st1" points="305.2,9.4 321.6,9.4 313.8,45.5 300.4,45.5 306.4,18.2 301.7,18.2 		"/>
		<polygon class="st1" points="331.8,9.4 348.2,9.4 340.3,45.5 327,45.5 333,18.2 328.3,18.2 		"/>
		<path class="st1" d="M201,15.1h-16.9l-16.6,30.6h13.1l2.3-4.6h9.6l0.4,4.6h12.7L201,15.1z M186.7,33.1c1.3-2.9,3.1-7.2,4.1-10h0.3
			c0.2,2.9,0.4,7.5,0.7,10H186.7z"/>
	</g>
	<g id="Foreground">
		<path class="st2" d="M98.3,13.7h16.9c7.9,0,12.5,4,12.5,9.8c0,7.8-6.6,11-14.9,11h-6.4l-2,9.8H91.8L98.3,13.7z M108,27h3.1
			c2.4,0,3.9-1.3,3.9-3.4c0-1.4-0.7-2.6-3-2.6h-2.7L108,27z"/>
		<polygon class="st2" points="139.4,13.7 152.2,13.7 147.4,36.2 162.4,36.2 159.4,44.3 132.9,44.3 		"/>
		<path class="st2" d="M12.9,1.2h30.9L54.6,14L69.5,1.2h30.7L67.8,29.6l23.8,27.8H60.9L49.9,44.8L35.7,57.4H4.9l31.7-27.8L12.9,1.2z
			"/>
		<path class="st2" d="M215.9,44.3l6.5-30.6H237c1.6,6,3,12.3,4,16.7h0.3c0.1-2.3,1.2-7.8,2.2-12.9l0.8-3.8h11.3l-6.5,30.6h-13.9
			c-1.1-4.7-3.2-14-4.2-18.9h-0.2c-0.3,3.6-1.5,9.2-2.6,14.5l-0.9,4.4H215.9z"/>
		<polygon class="st2" points="289,32.8 274.5,32.8 273.8,36.1 290.5,36.1 287.4,44.2 259.7,44.2 266.2,13.5 293.8,13.5 292.2,21.6 
			276.9,21.6 276.2,24.8 290.8,24.8 		"/>
		<polygon class="st2" points="306.6,8.1 322.9,8.1 315.1,44.2 301.7,44.2 307.7,16.9 303,16.9 		"/>
		<polygon class="st2" points="333.2,8.1 349.5,8.1 341.7,44.2 328.3,44.2 334.3,16.9 329.6,16.9 		"/>
		<path class="st2" d="M202.4,13.8h-16.9l-16.6,30.6H182l2.3-4.6h9.6l0.4,4.6h12.7L202.4,13.8z M188.1,31.8c1.3-2.9,3.1-7.2,4.1-10
			h0.3c0.2,2.9,0.4,7.5,0.7,10H188.1z"/>
	</g>
</g>
</svg>
